# xmcd CD database file
#
# Track frame offsets:
#	187
#	7182
#	35542
#	58572
#	79975
#	108667
#	133187
#	161737
#	189477
#
# Disc length: 2820 seconds
#
# Revision: 12
# Processed by: cddbd v1.5.2PL0 Copyright (c) Steve Scherf et al.
# Submitted via: CDex 1.70beta2
#
DISCID=7c0b0209
DTITLE=TOSHI - made in HEAVEN
DYEAR=1992
DGENRE=Rock
TTITLE0=Introduction
TTITLE1=made in HEAVEN
TTITLE2=Welcome to my destiny
TTITLE3=Stranger in my love
TTITLE4=Misty love
TTITLE5=One love
TTITLE6=Somebody loves you
TTITLE7=～PRELUDE～ Beyond the time
TTITLE8=Gentle love for tomorrow
EXTD=YEAR: 1992
EXTT0=
EXTT1=
EXTT2=
EXTT3=
EXTT4=
EXTT5=
EXTT6=
EXTT7=
EXTT8=
PLAYORDER=
